<svg width="148" height="35" viewBox="0 0 148 35" fill="none" xmlns="http://www.w3.org/2000/svg">
<path d="M0.36 35V0.439999H3.6L17.184 29.504L30.696 0.439999H33.984V34.976H30.624V8.312L18.312 35H16.032L3.744 8.312V35H0.36ZM38.7994 35V0.439999H60.3994V3.824H42.3274V15.776H57.5194V19.16H42.3274V31.616H60.3994V35H38.7994ZM64.2544 35V0.439999H77.5984C77.9344 0.439999 78.3104 0.455998 78.7264 0.487998C79.1584 0.503999 79.5904 0.551999 80.0224 0.631999C81.8304 0.903998 83.3584 1.536 84.6064 2.528C85.8704 3.504 86.8224 4.736 87.4624 6.224C88.1184 7.712 88.4464 9.36 88.4464 11.168C88.4464 13.776 87.7584 16.04 86.3824 17.96C85.0064 19.88 83.0384 21.088 80.4784 21.584L79.2544 21.872H67.7824V35H64.2544ZM85.1824 35L78.3664 20.936L81.7504 19.64L89.2384 35H85.1824ZM67.7824 18.512H77.5024C77.7904 18.512 78.1264 18.496 78.5104 18.464C78.8944 18.432 79.2704 18.376 79.6384 18.296C80.8224 18.04 81.7904 17.552 82.5424 16.832C83.3104 16.112 83.8784 15.256 84.2464 14.264C84.6304 13.272 84.8224 12.24 84.8224 11.168C84.8224 10.096 84.6304 9.064 84.2464 8.072C83.8784 7.064 83.3104 6.2 82.5424 5.48C81.7904 4.76 80.8224 4.272 79.6384 4.016C79.2704 3.936 78.8944 3.888 78.5104 3.872C78.1264 3.84 77.7904 3.824 77.5024 3.824H67.7824V18.512ZM92.6156 35V0.439999H105.96C106.296 0.439999 106.672 0.455998 107.088 0.487998C107.52 0.503999 107.952 0.551999 108.384 0.631999C110.192 0.903998 111.72 1.536 112.968 2.528C114.232 3.504 115.184 4.736 115.824 6.224C116.48 7.712 116.808 9.36 116.808 11.168C116.808 13.776 116.12 16.04 114.744 17.96C113.368 19.88 111.4 21.088 108.84 21.584L107.616 21.872H96.1436V35H92.6156ZM113.544 35L106.728 20.936L110.112 19.64L117.6 35H113.544ZM96.1436 18.512H105.864C106.152 18.512 106.488 18.496 106.872 18.464C107.256 18.432 107.632 18.376 108 18.296C109.184 18.04 110.152 17.552 110.904 16.832C111.672 16.112 112.24 15.256 112.608 14.264C112.992 13.272 113.184 12.24 113.184 11.168C113.184 10.096 112.992 9.064 112.608 8.072C112.24 7.064 111.672 6.2 110.904 5.48C110.152 4.76 109.184 4.272 108 4.016C107.632 3.936 107.256 3.888 106.872 3.872C106.488 3.84 106.152 3.824 105.864 3.824H96.1436V18.512ZM118.577 35L130.481 0.439999H135.161L147.065 35H143.393L132.089 2.408H133.481L122.249 35H118.577ZM123.881 26.624V23.312H141.737V26.624H123.881Z" fill="black"/>
</svg>
