<svg width="306" height="35" viewBox="0 0 306 35" fill="none" xmlns="http://www.w3.org/2000/svg">
<path d="M0.45 26V0.799999H3.04L16.9175 21.45V0.799999H19.5075V26H16.9175L3.04 5.3325V26H0.45ZM20.91 26L29.6425 13.2425L21.1375 0.799999H24.2525L31.165 11.09L38.0775 0.799999H41.21L32.705 13.2425L41.42 26H38.305L31.165 15.4125L24.0425 26H20.91ZM50.9394 26V3.2675H42.1369V0.799999H62.3144V3.2675H53.5119V26H50.9394ZM76.7555 26.525C75.0171 26.525 73.5471 26.0875 72.3455 25.2125C71.1438 24.3258 70.2338 23.13 69.6155 21.625C68.9971 20.1083 68.688 18.4108 68.688 16.5325C68.688 14.6192 68.9971 12.9158 69.6155 11.4225C70.2455 9.9175 71.1671 8.73333 72.3805 7.87C73.5938 7.00667 75.0871 6.575 76.8605 6.575C78.5871 6.575 80.0688 7.0125 81.3055 7.8875C82.5421 8.7625 83.4871 9.9525 84.1405 11.4575C84.8055 12.9625 85.138 14.6542 85.138 16.5325C85.138 18.4225 84.8055 20.12 84.1405 21.625C83.4755 23.13 82.5188 24.3258 81.2705 25.2125C80.0221 26.0875 78.5171 26.525 76.7555 26.525ZM68.2505 26V0.799999H70.8405V11.7725H70.5605V26H68.2505ZM76.493 24.1275C77.8113 24.1275 78.908 23.795 79.783 23.13C80.658 22.465 81.3113 21.5608 81.743 20.4175C82.1863 19.2625 82.408 17.9675 82.408 16.5325C82.408 15.1092 82.1921 13.8258 81.7605 12.6825C81.3288 11.5392 80.6696 10.635 79.783 9.97C78.908 9.305 77.7938 8.9725 76.4405 8.9725C75.1221 8.9725 74.0255 9.29333 73.1505 9.935C72.2871 10.5767 71.6396 11.4692 71.208 12.6125C70.7763 13.7442 70.5605 15.0508 70.5605 16.5325C70.5605 17.9908 70.7763 19.2975 71.208 20.4525C71.6396 21.5958 72.293 22.4942 73.168 23.1475C74.043 23.8008 75.1513 24.1275 76.493 24.1275ZM95.4734 26.525C93.595 26.525 91.9909 26.0992 90.6609 25.2475C89.3309 24.3958 88.31 23.2175 87.5984 21.7125C86.8867 20.2075 86.5309 18.4808 86.5309 16.5325C86.5309 14.5492 86.8925 12.8108 87.6159 11.3175C88.3392 9.82417 89.3659 8.66333 90.6959 7.835C92.0375 6.995 93.63 6.575 95.4734 6.575C97.3634 6.575 98.9734 7.00083 100.303 7.8525C101.645 8.6925 102.666 9.865 103.366 11.37C104.078 12.8633 104.433 14.5842 104.433 16.5325C104.433 18.5158 104.078 20.26 103.366 21.765C102.654 23.2583 101.628 24.425 100.286 25.265C98.9442 26.105 97.34 26.525 95.4734 26.525ZM95.4734 24.0575C97.5734 24.0575 99.1367 23.3633 100.163 21.975C101.19 20.575 101.703 18.7608 101.703 16.5325C101.703 14.2458 101.184 12.4258 100.146 11.0725C99.1192 9.71917 97.5617 9.0425 95.4734 9.0425C94.0617 9.0425 92.895 9.36333 91.9734 10.005C91.0634 10.635 90.3809 11.5158 89.9259 12.6475C89.4825 13.7675 89.2609 15.0625 89.2609 16.5325C89.2609 18.8075 89.7859 20.6333 90.8359 22.01C91.8859 23.375 93.4317 24.0575 95.4734 24.0575ZM106.894 26V7.1H109.204V11.65L108.749 11.055C108.959 10.495 109.233 9.98167 109.571 9.515C109.91 9.03667 110.277 8.64583 110.674 8.3425C111.164 7.91083 111.735 7.58417 112.389 7.3625C113.042 7.12917 113.701 6.995 114.366 6.96C115.031 6.91333 115.638 6.96 116.186 7.1V9.515C115.498 9.34 114.745 9.29917 113.929 9.3925C113.112 9.48583 112.36 9.8125 111.671 10.3725C111.041 10.8625 110.569 11.4517 110.254 12.14C109.939 12.8167 109.729 13.54 109.624 14.31C109.519 15.0683 109.466 15.8208 109.466 16.5675V26H106.894ZM118.456 3.5125V0.624999H121.029V3.5125H118.456ZM118.456 26V7.1H121.029V26H118.456ZM138.525 26V16.3575C138.525 15.3075 138.426 14.345 138.228 13.47C138.029 12.5833 137.708 11.8133 137.265 11.16C136.833 10.495 136.268 9.98167 135.568 9.62C134.879 9.25833 134.039 9.0775 133.048 9.0775C132.138 9.0775 131.333 9.235 130.633 9.55C129.944 9.865 129.361 10.32 128.883 10.915C128.416 11.4983 128.06 12.21 127.815 13.05C127.57 13.89 127.448 14.8467 127.448 15.92L125.628 15.5175C125.628 13.5808 125.966 11.9533 126.643 10.635C127.319 9.31667 128.253 8.31917 129.443 7.6425C130.633 6.96583 131.998 6.6275 133.538 6.6275C134.669 6.6275 135.655 6.8025 136.495 7.1525C137.347 7.5025 138.064 7.975 138.648 8.57C139.243 9.165 139.721 9.8475 140.083 10.6175C140.444 11.3758 140.707 12.1867 140.87 13.05C141.033 13.9017 141.115 14.7533 141.115 15.605V26H138.525ZM124.858 26V7.1H127.185V11.755H127.448V26H124.858ZM151.764 34.925C150.795 34.925 149.839 34.7792 148.894 34.4875C147.96 34.2075 147.097 33.7583 146.304 33.14C145.51 32.5333 144.845 31.74 144.309 30.76L146.636 29.465C147.161 30.515 147.896 31.2675 148.841 31.7225C149.798 32.1892 150.772 32.4225 151.764 32.4225C153.129 32.4225 154.231 32.1658 155.071 31.6525C155.923 31.1508 156.541 30.4042 156.926 29.4125C157.311 28.4208 157.498 27.1842 157.486 25.7025V20.6625H157.784V7.1H160.076V25.7375C160.076 26.2742 160.059 26.7875 160.024 27.2775C160 27.7792 159.948 28.2692 159.866 28.7475C159.645 30.1592 159.184 31.32 158.484 32.23C157.795 33.14 156.885 33.8167 155.754 34.26C154.634 34.7033 153.304 34.925 151.764 34.925ZM151.589 26.525C149.827 26.525 148.322 26.0875 147.074 25.2125C145.825 24.3258 144.869 23.13 144.204 21.625C143.539 20.12 143.206 18.4225 143.206 16.5325C143.206 14.6542 143.533 12.9625 144.186 11.4575C144.851 9.9525 145.802 8.7625 147.039 7.8875C148.275 7.0125 149.757 6.575 151.484 6.575C153.257 6.575 154.75 7.00667 155.964 7.87C157.177 8.73333 158.093 9.9175 158.711 11.4225C159.341 12.9158 159.656 14.6192 159.656 16.5325C159.656 18.4108 159.347 20.1083 158.729 21.625C158.11 23.13 157.2 24.3258 155.999 25.2125C154.797 26.0875 153.327 26.525 151.589 26.525ZM151.851 24.1275C153.193 24.1275 154.301 23.8008 155.176 23.1475C156.051 22.4942 156.705 21.5958 157.136 20.4525C157.568 19.2975 157.784 17.9908 157.784 16.5325C157.784 15.0508 157.568 13.7442 157.136 12.6125C156.705 11.4692 156.051 10.5767 155.176 9.935C154.313 9.29333 153.222 8.9725 151.904 8.9725C150.55 8.9725 149.43 9.305 148.544 9.97C147.657 10.635 146.998 11.5392 146.566 12.6825C146.146 13.8258 145.936 15.1092 145.936 16.5325C145.936 17.9675 146.152 19.2625 146.584 20.4175C147.027 21.5608 147.686 22.465 148.561 23.13C149.436 23.795 150.533 24.1275 151.851 24.1275ZM177.016 26.525C175.114 26.525 173.504 26.0992 172.186 25.2475C170.868 24.3958 169.864 23.2233 169.176 21.73C168.499 20.225 168.149 18.4983 168.126 16.55C168.149 14.5667 168.511 12.8283 169.211 11.335C169.911 9.83 170.92 8.66333 172.238 7.835C173.557 6.995 175.155 6.575 177.033 6.575C178.947 6.575 180.609 7.04167 182.021 7.975C183.444 8.90833 184.418 10.1858 184.943 11.8075L182.423 12.6125C181.98 11.4808 181.274 10.6058 180.306 9.9875C179.349 9.3575 178.253 9.0425 177.016 9.0425C175.628 9.0425 174.478 9.36333 173.568 10.005C172.658 10.635 171.982 11.5158 171.538 12.6475C171.095 13.7792 170.868 15.08 170.856 16.55C170.879 18.8133 171.404 20.6333 172.431 22.01C173.458 23.375 174.986 24.0575 177.016 24.0575C178.299 24.0575 179.39 23.7658 180.288 23.1825C181.198 22.5875 181.887 21.7242 182.353 20.5925L184.943 21.3625C184.243 23.0425 183.217 24.3258 181.863 25.2125C180.51 26.0875 178.894 26.525 177.016 26.525ZM194.536 26.525C192.657 26.525 191.053 26.0992 189.723 25.2475C188.393 24.3958 187.372 23.2175 186.661 21.7125C185.949 20.2075 185.593 18.4808 185.593 16.5325C185.593 14.5492 185.955 12.8108 186.678 11.3175C187.401 9.82417 188.428 8.66333 189.758 7.835C191.1 6.995 192.692 6.575 194.536 6.575C196.426 6.575 198.036 7.00083 199.366 7.8525C200.707 8.6925 201.728 9.865 202.428 11.37C203.14 12.8633 203.496 14.5842 203.496 16.5325C203.496 18.5158 203.14 20.26 202.428 21.765C201.716 23.2583 200.69 24.425 199.348 25.265C198.006 26.105 196.402 26.525 194.536 26.525ZM194.536 24.0575C196.636 24.0575 198.199 23.3633 199.226 21.975C200.252 20.575 200.766 18.7608 200.766 16.5325C200.766 14.2458 200.246 12.4258 199.208 11.0725C198.181 9.71917 196.624 9.0425 194.536 9.0425C193.124 9.0425 191.957 9.36333 191.036 10.005C190.126 10.635 189.443 11.5158 188.988 12.6475C188.545 13.7675 188.323 15.0625 188.323 16.5325C188.323 18.8075 188.848 20.6333 189.898 22.01C190.948 23.375 192.494 24.0575 194.536 24.0575ZM228.496 26L228.514 13.5925C228.514 12.1342 228.105 10.9908 227.289 10.1625C226.484 9.3225 225.457 8.9025 224.209 8.9025C223.497 8.9025 222.803 9.06583 222.126 9.3925C221.449 9.71917 220.889 10.2442 220.446 10.9675C220.014 11.6908 219.799 12.6358 219.799 13.8025L218.276 13.365C218.241 12.0117 218.504 10.8275 219.064 9.8125C219.635 8.7975 220.417 8.01 221.409 7.45C222.412 6.87833 223.544 6.5925 224.804 6.5925C226.705 6.5925 228.228 7.18167 229.371 8.36C230.514 9.52667 231.086 11.1075 231.086 13.1025L231.069 26H228.496ZM205.939 26V7.1H208.249V11.755H208.529V26H205.939ZM217.244 26L217.261 13.7675C217.261 12.2625 216.859 11.0783 216.054 10.215C215.26 9.34 214.21 8.9025 212.904 8.9025C211.597 8.9025 210.541 9.35167 209.736 10.25C208.931 11.1367 208.529 12.3208 208.529 13.8025L206.989 12.9625C206.989 11.7492 207.274 10.6642 207.846 9.7075C208.418 8.73917 209.199 7.98083 210.191 7.4325C211.183 6.8725 212.309 6.5925 213.569 6.5925C214.77 6.5925 215.838 6.84917 216.771 7.3625C217.716 7.87583 218.457 8.6225 218.994 9.6025C219.53 10.5825 219.799 11.7725 219.799 13.1725L219.781 26H217.244ZM242.712 26.525C240.973 26.525 239.503 26.0875 238.302 25.2125C237.1 24.3258 236.19 23.13 235.572 21.625C234.953 20.1083 234.644 18.4108 234.644 16.5325C234.644 14.6192 234.953 12.9158 235.572 11.4225C236.202 9.9175 237.123 8.73333 238.337 7.87C239.55 7.00667 241.043 6.575 242.817 6.575C244.543 6.575 246.025 7.0125 247.262 7.8875C248.498 8.7625 249.443 9.9525 250.097 11.4575C250.762 12.9625 251.094 14.6542 251.094 16.5325C251.094 18.4225 250.762 20.12 250.097 21.625C249.432 23.13 248.475 24.3258 247.227 25.2125C245.978 26.0875 244.473 26.525 242.712 26.525ZM234.207 34.4V7.1H236.517V21.3275H236.797V34.4H234.207ZM242.449 24.1275C243.767 24.1275 244.864 23.795 245.739 23.13C246.614 22.465 247.267 21.5608 247.699 20.4175C248.142 19.2625 248.364 17.9675 248.364 16.5325C248.364 15.1092 248.148 13.8258 247.717 12.6825C247.285 11.5392 246.626 10.635 245.739 9.97C244.864 9.305 243.75 8.9725 242.397 8.9725C241.078 8.9725 239.982 9.29333 239.107 9.935C238.243 10.5767 237.596 11.4692 237.164 12.6125C236.732 13.7442 236.517 15.0508 236.517 16.5325C236.517 17.9908 236.732 19.2975 237.164 20.4525C237.596 21.5958 238.249 22.4942 239.124 23.1475C239.999 23.8008 241.107 24.1275 242.449 24.1275ZM258.944 26.525C257.521 26.525 256.325 26.2683 255.357 25.755C254.4 25.2417 253.683 24.5592 253.204 23.7075C252.726 22.8558 252.487 21.9283 252.487 20.925C252.487 19.8983 252.691 19.0233 253.099 18.3C253.519 17.565 254.085 16.9642 254.797 16.4975C255.52 16.0308 256.354 15.675 257.299 15.43C258.256 15.1967 259.312 14.9925 260.467 14.8175C261.634 14.6308 262.771 14.4733 263.879 14.345C264.999 14.205 265.979 14.0708 266.819 13.9425L265.909 14.5025C265.944 12.6358 265.583 11.2533 264.824 10.355C264.066 9.45667 262.748 9.0075 260.869 9.0075C259.574 9.0075 258.478 9.29917 257.579 9.8825C256.693 10.4658 256.069 11.3875 255.707 12.6475L253.204 11.9125C253.636 10.2208 254.505 8.90833 255.812 7.975C257.119 7.04167 258.816 6.575 260.904 6.575C262.631 6.575 264.095 6.90167 265.297 7.555C266.51 8.19667 267.368 9.13 267.869 10.355C268.103 10.9033 268.254 11.5158 268.324 12.1925C268.394 12.8692 268.429 13.5575 268.429 14.2575V26H266.137V21.2575L266.802 21.5375C266.16 23.1592 265.163 24.3958 263.809 25.2475C262.456 26.0992 260.834 26.525 258.944 26.525ZM259.242 24.3025C260.444 24.3025 261.494 24.0867 262.392 23.655C263.29 23.2233 264.014 22.6342 264.562 21.8875C265.11 21.1292 265.466 20.2775 265.629 19.3325C265.769 18.7258 265.845 18.0608 265.857 17.3375C265.869 16.6025 265.874 16.0542 265.874 15.6925L266.854 16.2C265.979 16.3167 265.029 16.4333 264.002 16.55C262.987 16.6667 261.984 16.8008 260.992 16.9525C260.012 17.1042 259.125 17.285 258.332 17.495C257.795 17.6467 257.276 17.8625 256.774 18.1425C256.273 18.4108 255.859 18.7725 255.532 19.2275C255.217 19.6825 255.059 20.2483 255.059 20.925C255.059 21.4733 255.194 22.0042 255.462 22.5175C255.742 23.0308 256.185 23.4567 256.792 23.795C257.41 24.1333 258.227 24.3025 259.242 24.3025ZM285.235 26V16.3575C285.235 15.3075 285.136 14.345 284.938 13.47C284.739 12.5833 284.418 11.8133 283.975 11.16C283.543 10.495 282.978 9.98167 282.278 9.62C281.589 9.25833 280.749 9.0775 279.758 9.0775C278.848 9.0775 278.043 9.235 277.343 9.55C276.654 9.865 276.071 10.32 275.593 10.915C275.126 11.4983 274.77 12.21 274.525 13.05C274.28 13.89 274.158 14.8467 274.158 15.92L272.338 15.5175C272.338 13.5808 272.676 11.9533 273.353 10.635C274.029 9.31667 274.963 8.31917 276.153 7.6425C277.343 6.96583 278.708 6.6275 280.248 6.6275C281.379 6.6275 282.365 6.8025 283.205 7.1525C284.057 7.5025 284.774 7.975 285.358 8.57C285.953 9.165 286.431 9.8475 286.793 10.6175C287.154 11.3758 287.417 12.1867 287.58 13.05C287.743 13.9017 287.825 14.7533 287.825 15.605V26H285.235ZM271.568 26V7.1H273.895V11.755H274.158V26H271.568ZM292.978 34.4L296.635 24.4775L296.688 27.4175L288.41 7.1H291.14L297.93 24.0925H296.81L303.075 7.1H305.7L295.55 34.4H292.978Z" fill="black"/>
</svg>
