<svg width="32" height="32" viewBox="0 0 32 32" fill="none" xmlns="http://www.w3.org/2000/svg">
<path d="M31.6091 0.390748C31.359 0.140787 31.0199 0.000366211 30.6664 0.000366211C30.3128 0.000366211 29.9738 0.140787 29.7237 0.390748L15.9997 14.1147L2.27572 0.390748C2.02568 0.140787 1.6866 0.000366211 1.33305 0.000366211C0.979496 0.000366211 0.640419 0.140787 0.390382 0.390748C0.140421 0.640785 0 0.979863 0 1.33341C0 1.68697 0.140421 2.02604 0.390382 2.27608L14.1144 16.0001L0.390382 29.7241C0.140421 29.9741 0 30.3132 0 30.6667C0 31.0203 0.140421 31.3594 0.390382 31.6094C0.640419 31.8594 0.979496 31.9998 1.33305 31.9998C1.6866 31.9998 2.02568 31.8594 2.27572 31.6094L15.9997 17.8854L29.7237 31.6094C29.9738 31.8594 30.3128 31.9998 30.6664 31.9998C31.0199 31.9998 31.359 31.8594 31.6091 31.6094C31.859 31.3594 31.9994 31.0203 31.9994 30.6667C31.9994 30.3132 31.859 29.9741 31.6091 29.7241L17.885 16.0001L31.6091 2.27608C31.859 2.02604 31.9994 1.68697 31.9994 1.33341C31.9994 0.979863 31.859 0.640785 31.6091 0.390748Z" fill="#FF4E02"/>
</svg>
