<svg width="60" height="60" viewBox="0 0 60 60" fill="none" xmlns="http://www.w3.org/2000/svg">
<g clip-path="url(#clip0_61_12)">
<path d="M30 60C46.5685 60 60 46.5685 60 30C60 13.4315 46.5685 0 30 0C13.4315 0 0 13.4315 0 30C0 46.5685 13.4315 60 30 60Z" fill="#F84804"/>
<path d="M39.5043 26.4477L38.9009 31.6739C38.8758 31.9123 38.7641 32.1333 38.5869 32.2948C38.4096 32.4563 38.1793 32.5471 37.9395 32.55H32.485L32.4577 48.0443C32.4595 48.2279 32.3891 48.4049 32.2615 48.5369C32.1339 48.669 31.9594 48.7455 31.7759 48.75H26.2497C26.1579 48.7501 26.0669 48.7316 25.9824 48.6956C25.8978 48.6597 25.8214 48.607 25.7577 48.5408C25.694 48.4745 25.6444 48.3961 25.6118 48.3102C25.5792 48.2243 25.5642 48.1327 25.5679 48.0409V32.55H21.477C21.3485 32.5487 21.2216 32.522 21.1034 32.4716C20.9852 32.4212 20.8781 32.348 20.7882 32.2562C20.6982 32.1644 20.6273 32.0558 20.5794 31.9366C20.5315 31.8173 20.5075 31.6899 20.5088 31.5614L20.4884 26.3352C20.4866 26.2063 20.5102 26.0783 20.5579 25.9584C20.6056 25.8386 20.6764 25.7294 20.7663 25.637C20.8562 25.5445 20.9634 25.4707 21.0819 25.4197C21.2003 25.3687 21.3276 25.3416 21.4566 25.3398H25.5679V20.2943C25.5679 14.4375 29.0452 11.25 34.1452 11.25H38.3247C38.454 11.2513 38.5817 11.2782 38.7005 11.329C38.8193 11.3798 38.927 11.4535 39.0172 11.546C39.1075 11.6385 39.1786 11.7479 39.2265 11.8679C39.2744 11.9879 39.2981 12.1162 39.2963 12.2455V16.6432C39.2981 16.7724 39.2744 16.9007 39.2265 17.0207C39.1786 17.1408 39.1075 17.2502 39.0172 17.3426C38.927 17.4351 38.8193 17.5089 38.7005 17.5597C38.5817 17.6105 38.454 17.6373 38.3247 17.6386H35.7611C32.9895 17.6386 32.4509 19.0023 32.4509 20.9727V25.3398H38.5429C38.6815 25.3415 38.8181 25.3726 38.9438 25.4309C39.0695 25.4892 39.1814 25.5734 39.2722 25.6781C39.363 25.7827 39.4306 25.9054 39.4706 26.038C39.5106 26.1707 39.5221 26.3103 39.5043 26.4477Z" fill="white"/>
</g>
<defs>
<clipPath id="clip0_61_12">
<rect width="60" height="60" fill="white"/>
</clipPath>
</defs>
</svg>
