<svg width="60" height="60" viewBox="0 0 60 60" fill="none" xmlns="http://www.w3.org/2000/svg">
<g clip-path="url(#clip0_61_3)">
<path d="M30 60C46.5685 60 60 46.5685 60 30C60 13.4315 46.5685 0 30 0C13.4315 0 0 13.4315 0 30C0 46.5685 13.4315 60 30 60Z" fill="#F84804"/>
<path d="M45.7888 45.7896V34.208C45.7888 28.5396 44.569 24.1777 37.9453 24.1777C34.7598 24.1777 32.6243 25.9225 31.7519 27.5804H31.6611V24.7067H25.3809V45.7896H31.9177V35.3488C31.9177 32.5856 32.4388 29.9409 35.8651 29.9409C39.2914 29.9409 39.2677 33.0988 39.2677 35.5264V45.7896H45.7888Z" fill="white"/>
<path d="M14.7314 24.7065H21.2762V45.7894H14.7314V24.7065Z" fill="white"/>
<path d="M17.9998 14.2105C17.2449 14.2074 16.5061 14.4286 15.8771 14.8461C15.2482 15.2637 14.7575 15.8587 14.4674 16.5556C14.1773 17.2525 14.1007 18.0199 14.2475 18.7604C14.3943 19.5009 14.7578 20.1811 15.2919 20.7146C15.826 21.2481 16.5065 21.6109 17.2472 21.7569C17.9878 21.903 18.7551 21.8256 19.4518 21.5347C20.1484 21.2439 20.7428 20.7526 21.1597 20.1232C21.5766 19.4939 21.7971 18.7548 21.7932 18C21.7932 17.502 21.695 17.0089 21.5043 16.5489C21.3137 16.0889 21.0342 15.6709 20.6819 15.319C20.3296 14.9671 19.9114 14.688 19.4511 14.4978C18.9909 14.3076 18.4977 14.21 17.9998 14.2105Z" fill="white"/>
</g>
<defs>
<clipPath id="clip0_61_3">
<rect width="60" height="60" fill="white"/>
</clipPath>
</defs>
</svg>
