<svg width="45" height="45" viewBox="0 0 45 45" fill="none" xmlns="http://www.w3.org/2000/svg">
<path d="M38.3637 24.3637C39.1169 23.6106 39.1169 22.3895 38.3637 21.6363L26.0904 9.36295C25.3372 8.60979 24.1161 8.60979 23.3629 9.36295C22.6098 10.1161 22.6098 11.3372 23.3629 12.0904L34.2726 23L23.3629 33.9097C22.6098 34.6628 22.6098 35.8839 23.3629 36.6371C24.1161 37.3902 25.3372 37.3902 26.0903 36.6371L38.3637 24.3637ZM8 24.9286L37 24.9286L37 21.0714L8 21.0714L8 24.9286Z" fill="#FF4E02"/>
<path d="M43.7143 22.5C43.7143 34.2163 34.2163 43.7143 22.5 43.7143C10.7837 43.7143 1.28571 34.2163 1.28571 22.5C1.28571 10.7837 10.7837 1.28572 22.5 1.28572C34.2163 1.28572 43.7143 10.7837 43.7143 22.5Z" stroke="#FF4E02" stroke-width="2.57143"/>
</svg>
